<?xml version="1.0" standalone="no"?>
<!DOCTYPE svg PUBLIC "-//W3C//DTD SVG 20010904//EN"
 "http://www.w3.org/TR/2001/REC-SVG-20010904/DTD/svg10.dtd">
<svg version="1.0" xmlns="http://www.w3.org/2000/svg"
 width="16.000000pt" height="16.000000pt" viewBox="0 0 16.000000 16.000000"
 preserveAspectRatio="xMidYMid meet">
<metadata>
Created by potrace 1.11, written by Peter Selinger 2001-2013
</metadata>
<g transform="translate(0.000000,16.000000) scale(0.006154,-0.006154)"
fill="#000000" stroke="none">
<path d="M695 2318 c-2 -7 -6 -220 -7 -473 -3 -417 -5 -465 -22 -510 -40 -110
-92 -145 -216 -145 -54 1 -94 7 -145 25 -38 14 -74 26 -78 27 -5 2 -22 -44
-38 -101 -34 -119 -36 -114 61 -151 89 -34 187 -45 293 -33 120 14 194 43 257
100 138 124 163 264 158 893 l-3 375 -128 3 c-96 2 -128 0 -132 -10z"/>
<path d="M1150 1650 l0 -681 133 3 132 3 5 424 5 424 340 -424 341 -424 107
-3 107 -3 0 681 0 680 -130 0 -130 0 -2 -442 -3 -442 -345 435 c-189 239 -349
437 -355 441 -5 4 -54 8 -107 8 l-98 0 0 -680z"/>
<path d="M1089 718 c-20 -5 -50 -23 -65 -39 -24 -25 -29 -39 -29 -81 0 -64 18
-79 132 -114 47 -14 93 -34 104 -45 75 -75 -72 -134 -183 -75 -34 18 -49 21
-57 13 -20 -20 -12 -36 32 -59 33 -18 59 -23 124 -23 96 0 129 18 152 81 26
74 -17 123 -140 156 -41 11 -82 27 -91 35 -24 21 -23 66 2 88 26 24 114 24
160 0 32 -17 34 -17 47 1 12 16 11 21 -4 32 -21 15 -109 42 -132 41 -9 -1 -32
-5 -52 -11z"/>
<path d="M1685 725 c-5 -2 -22 -6 -37 -9 -40 -9 -98 -64 -120 -114 -74 -167
80 -361 239 -301 15 6 38 20 51 31 l22 21 0 -31 c0 -25 4 -32 20 -32 19 0 20
7 20 110 l0 111 -67 -3 c-60 -3 -68 -5 -68 -23 0 -17 8 -20 48 -23 45 -3 47
-5 47 -32 0 -41 -55 -82 -118 -87 -60 -6 -108 24 -139 87 -37 72 -24 151 32
207 29 29 40 33 84 33 55 0 105 -19 114 -45 8 -19 31 -20 46 -1 14 16 -17 59
-57 80 -28 14 -100 27 -117 21z"/>
<path d="M210 505 l0 -215 88 0 c115 0 158 13 208 64 98 97 71 287 -48 345
-36 17 -63 21 -146 21 l-102 0 0 -215z m231 142 c65 -43 87 -132 53 -217 -25
-61 -62 -83 -155 -88 l-79 -5 0 167 0 166 74 0 c59 0 79 -4 107 -23z"/>
<path d="M640 505 l0 -215 145 0 145 0 0 25 0 25 -115 0 -115 0 0 75 0 75 101
0 c98 0 100 0 97 23 -3 21 -8 22 -100 25 l-98 3 0 64 0 65 115 0 115 0 0 25 0
25 -145 0 -145 0 0 -215z"/>
<path d="M1380 505 l0 -215 25 0 25 0 0 215 0 215 -25 0 -25 0 0 -215z"/>
<path d="M1970 505 l0 -215 25 0 25 0 2 162 3 163 129 -160 c92 -114 135 -161
152 -163 l24 -3 0 215 0 216 -30 0 -30 0 -2 -160 -3 -159 -128 159 c-87 110
-133 160 -147 160 -19 0 -20 -7 -20 -215z"/>
</g>
</svg>
